<mxfile host="app.diagrams.net" modified="2023-06-14T22:48:45.481Z" agent="Mozilla/5.0 (Windows NT 10.0; Win64; x64) AppleWebKit/537.36 (KHTML, like Gecko) Chrome/109.0.0.0 Safari/537.36 Edg/109.0.1518.61" version="21.3.2" etag="4sKzYj3qwfwaFMlOV932" type="github">
  <diagram name="PÃ¡gina-1" id="KTSiodwRZU1bHC9H86pS">
    <mxGraphModel>
      <root>
        <mxCell id="0" />
        <mxCell id="1" parent="0" />
      </root>
    </mxGraphModel>
  </diagram>
</mxfile>
